<?xml version="1.0" encoding="UTF-8" standalone="no" ?>
<!DOCTYPE svg PUBLIC "-//W3C//DTD SVG 1.1//EN" "http://www.w3.org/Graphics/SVG/1.1/DTD/svg11.dtd">
<svg xmlns="http://www.w3.org/2000/svg" xmlns:xlink="http://www.w3.org/1999/xlink" version="1.1" width="1080" height="1080" viewBox="0 0 1080 1080" xml:space="preserve">
<desc>Created with Fabric.js 5.2.4</desc>
<defs>
</defs>
<g transform="matrix(1 0 0 1 540 540)" id="bcc96eaa-b5ca-4bb4-b207-20aeed137bc9"  >
<rect style="stroke: none; stroke-width: 1; stroke-dasharray: none; stroke-linecap: butt; stroke-dashoffset: 0; stroke-linejoin: miter; stroke-miterlimit: 4; fill: rgb(255,255,255); fill-rule: nonzero; opacity: 1; visibility: hidden;" vector-effect="non-scaling-stroke"  x="-540" y="-540" rx="0" ry="0" width="1080" height="1080" />
</g>
<g transform="matrix(1 0 0 1 540 540)" id="79527df7-64ef-4a85-9ba5-21a91043e01c"  >
</g>
<g transform="matrix(3.09 0 0 3.09 540 540)" id="SvgjsG3763"  >
<linearGradient id="SVGID_SvgjsLinearGradient3765_3" gradientUnits="objectBoundingBox" gradientTransform="matrix(1 0 0 1 0 0)"  x1="0" y1="0" x2="1" y2="0">
<stop offset="0%" style="stop-color:rgb(144,94,38);stop-opacity: 1"/>
<stop offset="50%" style="stop-color:rgb(245,236,155);stop-opacity: 1"/>
<stop offset="100%" style="stop-color:rgb(144,94,38);stop-opacity: 1"/>
</linearGradient>
<path style="stroke: none; stroke-width: 1; stroke-dasharray: none; stroke-linecap: butt; stroke-dashoffset: 0; stroke-linejoin: miter; stroke-miterlimit: 4; fill: url(#SVGID_SvgjsLinearGradient3765_3); fill-rule: nonzero; opacity: 1;"  transform=" translate(-128.72, -25.92)" d="M 33.32 12 L 33.32 39.760000000000005 L 37.2 39.760000000000005 L 37.2 40.00000000000001 L 25.200000000000003 40.00000000000001 L 25.200000000000003 39.760000000000005 L 29.080000000000002 39.760000000000005 L 29.080000000000002 12.360000000000007 L 16.28 38.00000000000001 L 5.32 12.440000000000008 L 5.32 39.760000000000005 L 9.2 39.760000000000005 L 9.2 40.00000000000001 L 1.1999999999999993 40.00000000000001 L 1.1999999999999993 39.760000000000005 L 5.079999999999999 39.760000000000005 L 5.079999999999999 12.000000000000004 L 1.1999999999999993 12.000000000000004 L 1.1999999999999993 11.760000000000003 L 9.28 11.760000000000003 L 18.439999999999998 33.160000000000004 L 29.119999999999997 11.760000000000005 L 37.199999999999996 11.760000000000005 L 37.199999999999996 12.000000000000005 L 33.31999999999999 12.000000000000005 z M 51 27.880000000000003 C 51 27.346680000000003 50.9 26.840000000000003 50.7 26.360000000000003 C 50.50000000000001 25.880000000000003 50.220000000000006 25.466680000000004 49.86 25.120000000000005 C 49.49999999999999 24.773320000000005 49.08668 24.500000000000004 48.62 24.300000000000004 C 48.153319999999994 24.100000000000005 47.65332 24.000000000000004 47.12 24.000000000000004 C 46.0267 24.000000000000004 45.1067 24.373320000000003 44.36 25.120000000000005 C 43.6133 25.866680000000006 43.24 26.786700000000003 43.24 27.880000000000003 L 43.24 35.88 C 43.24 36.9733 43.61332 37.8933 44.36 38.64 C 45.10668 39.3867 46.0267 39.76 47.12 39.76 C 47.65332 39.76 48.153299999999994 39.66 48.62 39.46 C 49.0867 39.260000000000005 49.5 38.98668 49.86 38.64 C 50.22 38.29332 50.5 37.88 50.7 37.4 C 50.900000000000006 36.919999999999995 51 36.41332 51 35.879999999999995 L 51 27.879999999999995 z M 47.12 23.76 C 48.239999999999995 23.76 49.2934 23.973280000000003 50.28 24.39996 C 51.266600000000004 24.826639999999998 52.1267 25.40666 52.86 26.13996 C 53.5933 26.87326 54.1733 27.733259999999998 54.6 28.71996 C 55.026700000000005 29.706660000000003 55.24 30.75996 55.24 31.87996 C 55.24 32.99996 55.02668 34.04666 54.6 35.01996 C 54.173320000000004 35.99325999999999 53.586600000000004 36.85326 52.84 37.599959999999996 C 52.0934 38.34665999999999 51.2333 38.93335999999999 50.260000000000005 39.359959999999994 C 49.28670000000001 39.786559999999994 48.24 39.999959999999994 47.120000000000005 39.999959999999994 C 45.94670000000001 39.999959999999994 44.86000000000001 39.766639999999995 43.86000000000001 39.29995999999999 C 42.86000000000001 38.83327999999999 42.00000000000001 38.21325999999999 41.28000000000001 37.43995999999999 C 40.56000000000001 36.66665999999999 40.00000000000001 35.79995999999999 39.60000000000001 34.83995999999999 C 39.20000000000001 33.87995999999999 39.00000000000001 32.89325999999999 39.00000000000001 31.87995999999999 C 39.00000000000001 30.75995999999999 39.21332000000001 29.70665999999999 39.64000000000001 28.71995999999999 C 40.066680000000005 27.73325999999999 40.64670000000001 26.87325999999999 41.38000000000001 26.139959999999988 C 42.11330000000001 25.406659999999984 42.97330000000001 24.82665999999999 43.96000000000001 24.39995999999999 C 44.94670000000001 23.97325999999999 46.00000000000001 23.75995999999999 47.120000000000005 23.75995999999999 z M 78.48 23.76 L 78.48 24 L 74.56 24 C 73.22670000000001 26.6667 72.16 28.7932 71.36 30.38 C 70.56 31.9668 69.9333 33.2067 69.48 34.1 C 69.0267 34.993300000000005 68.70668 35.6333 68.52000000000001 36.02 C 68.33332000000001 36.40670000000001 68.16664000000002 36.746680000000005 68.01996000000001 37.040000000000006 C 67.87328000000001 37.33332000000001 67.69328000000002 37.686640000000004 67.47996 38.10000000000001 C 67.26664 38.51336000000001 66.93332000000001 39.17330000000001 66.48 40.080000000000005 L 58.400000000000006 24.000000000000007 L 54.480000000000004 24.000000000000007 L 54.480000000000004 23.76000000000001 L 66.48 23.76000000000001 L 66.48 24.000000000000007 L 62.64 24.000000000000007 L 68.48 35.64000000000001 L 74.28 24.000000000000007 L 70.48 24.000000000000007 L 70.48 23.76000000000001 L 78.48 23.76000000000001 z M 91.67999999999999 39.76 L 91.67999999999999 40 L 79.67999999999999 40 L 79.67999999999999 39.76 L 83.55999999999999 39.76 L 83.55999999999999 24 L 79.67999999999999 24 L 79.67999999999999 23.76 L 87.8 23.76 L 87.8 39.760000000000005 L 91.67999999999999 39.760000000000005 z M 85.67999999999999 20 C 85.09331999999999 20 84.5933 19.79332 84.17999999999999 19.38 C 83.76669999999999 18.966679999999997 83.55999999999999 18.46668 83.55999999999999 17.88 C 83.55999999999999 17.293319999999998 83.76668 16.7933 84.17999999999999 16.38 C 84.59331999999999 15.9667 85.09331999999999 15.76 85.67999999999999 15.76 C 86.26668 15.76 86.76669999999999 15.96668 87.17999999999999 16.38 C 87.5933 16.793319999999998 87.8 17.293319999999998 87.8 17.88 C 87.8 18.46668 87.59331999999999 18.9667 87.17999999999999 19.38 C 86.76668 19.7933 86.26668 20 85.67999999999999 20 z M 101 23.76 C 102.52 23.76 103.7934 24.066840000000003 104.82 24.68016 C 105.84659999999998 25.29348 106.67999999999999 26.03346 107.32 26.90016 C 107.96 27.766859999999998 108.41999999999999 28.66686 108.69999999999999 29.60016 C 108.97999999999999 30.533459999999998 109.11999999999999 31.33346 109.11999999999999 32.00016 L 97.11999999999999 32.00016 L 97.11999999999999 35.880160000000004 C 97.11999999999999 36.97346 97.49332 37.893460000000005 98.24 38.64016 C 98.98667999999999 39.38686 99.9067 39.76016 101 39.76016 C 101.26668 39.76016 101.57336 39.73348 101.92004 39.68016 C 102.26672 39.62684 102.6134 39.54684 102.96004 39.44016 C 103.30668000000001 39.333479999999994 103.62004 39.1868 103.90004 39.000119999999995 C 104.18004 38.81343999999999 104.40004 38.60012 104.56004 38.360119999999995 C 104.29336 38.57344 103.98668 38.680119999999995 103.64 38.680119999999995 C 103.24 38.680119999999995 102.9 38.540119999999995 102.62 38.26011999999999 C 102.34 37.98011999999999 102.2 37.640119999999996 102.2 37.24011999999999 C 102.2 36.840119999999985 102.34 36.49343999999999 102.62 36.20011999999999 C 102.9 35.90679999999999 103.24000000000001 35.76011999999999 103.64 35.76011999999999 C 104.03999999999999 35.76011999999999 104.38668 35.9068 104.68 36.20011999999999 C 104.97332000000002 36.493439999999985 105.12 36.84011999999999 105.12 37.24011999999999 C 105.12 37.93343999999999 104.90668000000001 38.46671999999999 104.48 38.84011999999999 C 104.05332 39.213519999999995 103.58664 39.48675999999999 103.08 39.660079999999994 C 102.57336 39.8334 102.10664 39.93339999999999 101.67999999999999 39.96007999999999 C 101.25335999999999 39.98675999999999 101.02663999999999 40.00007999999999 100.99995999999999 40.00007999999999 C 99.63995999999999 40.00007999999999 98.45325999999999 39.76007999999999 97.43995999999999 39.28007999999999 C 96.42665999999998 38.800079999999994 95.57995999999999 38.16677999999999 94.89995999999998 37.38007999999999 C 94.21995999999997 36.593379999999996 93.71325999999998 35.720079999999996 93.37995999999998 34.760079999999995 C 93.04665999999999 33.800079999999994 92.87995999999998 32.84007999999999 92.87995999999998 31.880079999999996 C 92.87995999999998 30.760079999999995 93.09327999999998 29.713379999999997 93.51995999999998 28.740079999999995 C 93.94663999999999 27.766779999999994 94.53335999999999 26.906779999999994 95.27995999999999 26.160079999999994 C 96.02655999999999 25.413379999999993 96.88665999999999 24.826679999999993 97.85995999999999 24.400079999999992 C 98.83325999999998 23.97347999999999 99.87995999999998 23.76007999999999 100.99995999999999 23.76007999999999 z M 104.88 31.759999999999998 L 104.879921876 27.88 C 104.879921876 27.85332 104.853241876 27.633319999999998 104.799921876 27.22 C 104.746601876 26.80668 104.593281876 26.36 104.339961876 25.88 C 104.086641876 25.4 103.699961876 24.96668 103.17996187600001 24.58 C 102.65996187600001 24.193319999999996 101.933261876 24 100.999961876 24 C 100.066661876 24 99.339961876 24.19332 98.819961876 24.58 C 98.29996187599998 24.966679999999997 97.913281876 25.4 97.659961876 25.88 C 97.406641876 26.36 97.253321876 26.80668 97.200001876 27.22 C 97.146681876 27.633319999999998 97.120001876 27.85332 97.120001876 27.88 L 97.120001876 31.759999999999998 L 104.88000187600001 31.759999999999998 z M 123.24 30.96 C 123.32 31.6 123.50659999999999 32.42 123.79992 33.42 C 124.09324000000001 34.42 124.59324 35.3933 125.29992 36.34 C 126.0066 37.2867 126.97992 38.0934 128.21992 38.760000000000005 C 129.45992 39.42660000000001 131.06662 39.760000000000005 133.03992 39.760000000000005 C 133.83992 39.760000000000005 134.59992 39.606680000000004 135.31992 39.300000000000004 C 136.03992 38.993320000000004 136.66662 38.57332 137.19992 38.040000000000006 C 137.73322 37.50668000000001 138.15323999999998 36.88000000000001 138.45991999999998 36.160000000000004 C 138.76659999999998 35.44 138.91992 34.68000000000001 138.91992 33.88 L 138.91992 25.880000000000003 C 138.91992 25.13332 138.83324 24.480000000000004 138.65992 23.92 C 138.4866 23.36 138.25992 22.8733 137.97992 22.46 C 137.69992 22.0467 137.3866 21.7 137.03992 21.42 C 136.69324 21.140000000000004 136.33324 20.90668 135.95991999999998 20.720000000000002 C 135.07992 20.29332 134.10662 20.053320000000003 133.03992 20.000000000000004 C 132.26659999999998 19.973320000000005 131.57332 19.813320000000004 130.95991999999998 19.520000000000003 C 130.42659999999998 19.253320000000002 129.95332 18.840000000000003 129.53992 18.280000000000005 C 129.12652 17.720000000000006 128.91992 16.920000000000005 128.91992 15.880000000000004 C 128.91992 14.840000000000003 129.1266 14.046700000000005 129.53992 13.500000000000004 C 129.95324 12.953300000000002 130.41324 12.546640000000004 130.91992 12.280000000000003 C 131.42659999999998 12.013360000000002 131.89328 11.860000000000003 132.31992 11.820000000000002 C 132.74656 11.780000000000001 132.9866 11.760000000000002 133.03992 11.760000000000002 C 133.0666 11.760000000000002 133.29992 11.780000000000001 133.73991999999998 11.820000000000002 C 134.17991999999998 11.860000000000003 134.65323999999998 12.006680000000003 135.15991999999997 12.260000000000002 C 135.66659999999996 12.51332 136.12659999999997 12.920000000000002 136.53991999999997 13.480000000000002 C 136.95323999999997 14.040000000000003 137.15991999999997 14.840000000000002 137.15991999999997 15.880000000000003 C 137.15991999999997 16.466680000000004 136.95323999999997 16.966700000000003 136.53991999999997 17.380000000000003 C 136.12659999999997 17.793300000000002 135.62659999999997 18.000000000000004 135.03991999999997 18.000000000000004 C 134.45323999999997 18.000000000000004 133.95321999999996 17.793320000000005 133.53991999999997 17.380000000000003 C 133.12661999999997 16.96668 132.91991999999996 16.466680000000004 132.91991999999996 15.880000000000003 C 132.91991999999996 15.293320000000001 133.12659999999997 14.793300000000002 133.53991999999997 14.380000000000003 C 133.95323999999997 13.966700000000003 134.45323999999997 13.760000000000003 135.03991999999997 13.760000000000003 C 135.78659999999996 13.760000000000003 136.35991999999996 14.066680000000003 136.75991999999997 14.680000000000003 C 136.57323999999997 14.013320000000004 136.27991999999998 13.493300000000003 135.87991999999997 13.120000000000003 C 135.47991999999996 12.746700000000002 135.06659999999997 12.480000000000002 134.63991999999996 12.320000000000002 C 134.15991999999997 12.133320000000001 133.62661999999997 12.026640000000002 133.03991999999997 11.999960000000002 L 132.41991999999996 12.059960000000002 L 131.07991999999996 12.479960000000002 L 129.75991999999997 13.639960000000002 L 129.15991999999997 15.879960000000002 C 129.15991999999997 16.866640000000004 129.35991999999996 17.619960000000003 129.75991999999997 18.139960000000002 C 130.15991999999997 18.65996 130.59991999999997 19.03996 131.07991999999996 19.279960000000003 C 131.63991999999996 19.573280000000004 132.29321999999996 19.733280000000004 133.03991999999997 19.759960000000003 C 134.42661999999996 19.759960000000003 135.73331999999996 20.026640000000004 136.95991999999995 20.559960000000004 C 138.18651999999994 21.093280000000004 139.25991999999997 21.813260000000003 140.17991999999995 22.719960000000004 C 141.09991999999994 23.626660000000005 141.82661999999996 24.699960000000004 142.35991999999996 25.939960000000003 C 142.89321999999996 27.17996 143.15991999999997 28.493260000000003 143.15991999999997 29.879960000000004 C 143.15991999999997 31.293260000000004 142.89323999999996 32.613260000000004 142.35991999999996 33.839960000000005 C 141.82659999999996 35.066660000000006 141.09991999999997 36.13336 140.17991999999995 37.03996000000001 C 139.25991999999994 37.94656000000001 138.18661999999995 38.66666000000001 136.95991999999995 39.199960000000004 C 135.73321999999996 39.73326 134.42651999999995 39.99996 133.03991999999997 39.99996 C 131.35991999999996 39.99996 129.94661999999997 39.753280000000004 128.79991999999996 39.25996 C 127.65321999999995 38.766639999999995 126.70651999999995 38.15336 125.95991999999995 37.419959999999996 C 125.21331999999995 36.68655999999999 124.63321999999995 35.87996 124.21991999999996 34.999959999999994 C 123.80661999999997 34.11995999999999 123.50659999999996 33.306659999999994 123.31991999999995 32.55996 C 123.13323999999994 31.81326 123.01991999999996 31.186559999999997 122.97991999999995 30.679959999999998 C 122.93991999999994 30.17336 122.91991999999995 29.906599999999997 122.91991999999995 29.87992 C 122.91991999999995 29.293239999999997 123.12659999999995 28.793219999999998 123.53991999999995 28.37992 C 123.95323999999995 27.96662 124.45323999999995 27.759919999999997 125.03991999999995 27.759919999999997 C 125.62659999999995 27.759919999999997 126.12661999999995 27.966599999999996 126.53991999999995 28.37992 C 126.95321999999996 28.79324 127.15991999999996 29.293239999999997 127.15991999999996 29.87992 C 127.15991999999996 30.4666 126.95323999999995 30.96662 126.53991999999995 31.37992 C 126.12659999999995 31.793219999999998 125.62659999999995 31.99992 125.03991999999995 31.99992 C 124.23991999999996 31.99992 123.63991999999995 31.65324 123.23991999999996 30.95992 z M 153.08 24 L 153.08 39.76 L 156.96 39.76 L 156.96 40 L 144.96 40 L 144.96 39.76 L 148.84 39.76 L 148.84 24 L 144.96 24 L 144.96 23.76 L 148.84 23.76 L 148.84 12.000000000000002 L 144.96 12.000000000000002 L 144.96 11.760000000000002 L 153.08 11.760000000000002 L 153.08 23.76 L 160.96 23.76 L 160.96 24 L 153.08 24 z M 174.16 23.76 C 175.17329999999998 23.78668 175.96009999999998 24.00676 176.52009999999999 24.420080000000002 C 177.0801 24.833400000000005 177.49342 25.306720000000002 177.7601 25.84008 C 178.05342 26.453400000000002 178.22674 27.13338 178.28006 27.88008 C 178.28006 28.46676 178.07338 28.96678 177.66006 29.38008 C 177.24674 29.79338 176.74674 30.00008 176.16006 30.00008 C 175.57338 30.00008 175.07335999999998 29.793400000000002 174.66006 29.38008 C 174.24676 28.966759999999997 174.04005999999998 28.46676 174.04005999999998 27.88008 C 174.04005999999998 27.2934 174.24674 26.79338 174.66006 26.38008 C 175.07338 25.96678 175.57338 25.76008 176.16006 25.76008 C 176.50673999999998 25.76008 176.82005999999998 25.840079999999997 177.10005999999998 26.000079999999997 C 177.38006 26.160079999999997 177.62673999999998 26.360079999999996 177.84006 26.60008 C 177.76005999999998 26.333399999999997 177.63338 26.046719999999997 177.46006 25.740039999999997 C 177.28674 25.433359999999997 177.05342 25.146679999999996 176.7601 24.879999999999995 C 176.46678 24.613319999999995 176.10678 24.399999999999995 175.68009999999998 24.239999999999995 C 175.25341999999998 24.079999999999995 174.74674 23.999999999999996 174.16009999999997 23.999999999999996 C 172.96009999999998 23.999999999999996 172.01339999999996 24.373319999999996 171.32009999999997 25.119999999999997 C 170.62679999999997 25.86668 170.28009999999998 26.799999999999997 170.28009999999998 27.919999999999998 L 170.28009999999998 39.76 L 174.0801 39.76 L 174.0801 40 L 162.1601 40 L 162.1601 39.76 L 166.0401 39.76 L 166.0401 24 L 162.1601 24 L 162.1601 23.76 L 170.2801 23.76 L 170.2801 26.6 C 170.36010000000002 26.30668 170.49342000000001 25.993360000000003 170.6801 25.660040000000002 C 170.86678 25.32672 171.10678000000001 25.02004 171.4001 24.74004 C 171.69342 24.46004 172.06674 24.22672 172.5201 24.04004 C 172.97346000000002 23.853360000000002 173.5201 23.76004 174.1601 23.76004 z M 188.6 23.76 C 190.12 23.76 191.39339999999999 24.066840000000003 192.42 24.68016 C 193.4466 25.29348 194.28 26.03346 194.92 26.90016 C 195.55999999999997 27.766859999999998 196.01999999999998 28.66686 196.29999999999998 29.60016 C 196.57999999999998 30.533459999999998 196.71999999999997 31.33346 196.71999999999997 32.00016 L 184.71999999999997 32.00016 L 184.71999999999997 35.880160000000004 C 184.71999999999997 36.97346 185.09331999999998 37.893460000000005 185.83999999999997 38.64016 C 186.58667999999997 39.38686 187.50669999999997 39.76016 188.59999999999997 39.76016 C 188.86667999999997 39.76016 189.17335999999997 39.73348 189.52003999999997 39.68016 C 189.86671999999996 39.62684 190.21339999999998 39.54684 190.56003999999996 39.44016 C 190.90667999999994 39.333479999999994 191.22003999999995 39.1868 191.50003999999996 39.000119999999995 C 191.78003999999996 38.81343999999999 192.00003999999996 38.60012 192.16003999999995 38.360119999999995 C 191.89335999999994 38.57344 191.58667999999994 38.680119999999995 191.23999999999995 38.680119999999995 C 190.83999999999995 38.680119999999995 190.49999999999994 38.540119999999995 190.21999999999994 38.26011999999999 C 189.93999999999994 37.98011999999999 189.79999999999995 37.640119999999996 189.79999999999995 37.24011999999999 C 189.79999999999995 36.840119999999985 189.93999999999994 36.49343999999999 190.21999999999994 36.20011999999999 C 190.49999999999994 35.90679999999999 190.83999999999995 35.76011999999999 191.23999999999995 35.76011999999999 C 191.63999999999996 35.76011999999999 191.98667999999995 35.9068 192.27999999999994 36.20011999999999 C 192.57331999999994 36.493439999999985 192.71999999999994 36.84011999999999 192.71999999999994 37.24011999999999 C 192.71999999999994 37.93343999999999 192.50667999999993 38.46671999999999 192.07999999999996 38.84011999999999 C 191.65331999999998 39.213519999999995 191.18663999999995 39.48675999999999 190.67999999999995 39.660079999999994 C 190.17335999999995 39.8334 189.70663999999994 39.93339999999999 189.27999999999994 39.96007999999999 C 188.85335999999995 39.98675999999999 188.62663999999995 40.00007999999999 188.59995999999995 40.00007999999999 C 187.23995999999994 40.00007999999999 186.05325999999997 39.76007999999999 185.03995999999995 39.28007999999999 C 184.02665999999994 38.800079999999994 183.17995999999994 38.16677999999999 182.49995999999996 37.38007999999999 C 181.81995999999998 36.593379999999996 181.31325999999996 35.720079999999996 180.97995999999995 34.760079999999995 C 180.64665999999994 33.800079999999994 180.47995999999995 32.84007999999999 180.47995999999995 31.880079999999996 C 180.47995999999995 30.760079999999995 180.69327999999996 29.713379999999997 181.11995999999994 28.740079999999995 C 181.5466399999999 27.766779999999994 182.13335999999993 26.906779999999994 182.87995999999993 26.160079999999994 C 183.62655999999993 25.413379999999993 184.48665999999992 24.826679999999993 185.45995999999994 24.400079999999992 C 186.43325999999996 23.97347999999999 187.47995999999995 23.76007999999999 188.59995999999992 23.76007999999999 z M 192.48 31.759999999999998 L 192.479921876 27.88 C 192.479921876 27.85332 192.453241876 27.633319999999998 192.39992187599998 27.22 C 192.34660187599997 26.80668 192.193281876 26.36 191.93996187599998 25.88 C 191.68664187599998 25.4 191.299961876 24.96668 190.779961876 24.58 C 190.25996187599998 24.193319999999996 189.53326187599998 24 188.59996187599998 24 C 187.66666187599998 24 186.93996187599998 24.19332 186.41996187599997 24.58 C 185.89996187599996 24.966679999999997 185.51328187599998 25.4 185.25996187599998 25.88 C 185.00664187599997 26.36 184.85332187599997 26.80668 184.80000187599998 27.22 C 184.746681876 27.633319999999998 184.72000187599997 27.85332 184.72000187599997 27.88 L 184.72000187599997 31.759999999999998 L 192.48000187599996 31.759999999999998 z M 210.92 27.880000000000003 C 210.92 27.346680000000003 210.82 26.840000000000003 210.61999999999998 26.360000000000003 C 210.41999999999996 25.880000000000003 210.14 25.466680000000004 209.77999999999997 25.120000000000005 C 209.41999999999996 24.773320000000005 209.00667999999996 24.500000000000004 208.53999999999996 24.300000000000004 C 208.07331999999997 24.100000000000005 207.57331999999997 24.000000000000004 207.03999999999996 24.000000000000004 C 206.50667999999996 24.000000000000004 205.99999999999997 24.100000000000005 205.51999999999995 24.300000000000004 C 205.03999999999994 24.500000000000004 204.62667999999996 24.780000000000005 204.27999999999994 25.140000000000004 C 203.93331999999992 25.500000000000004 203.65999999999994 25.913320000000006 203.45999999999995 26.380000000000003 C 203.25999999999996 26.84668 203.15999999999994 27.346680000000003 203.15999999999994 27.880000000000003 L 203.15999999999994 35.92 C 203.15999999999994 37.120000000000005 203.48667999999995 38.066700000000004 204.13999999999993 38.760000000000005 C 204.7933199999999 39.453300000000006 205.75999999999993 39.800000000000004 207.03999999999994 39.800000000000004 C 207.81331999999995 39.800000000000004 208.53329999999994 39.580000000000005 209.19999999999993 39.14000000000001 C 209.86669999999992 38.70000000000001 210.34669999999994 38.10670000000001 210.63999999999993 37.36000000000001 C 210.77331999999993 36.98668000000001 210.85331999999994 36.66668000000001 210.87999999999994 36.400000000000006 C 210.90667999999994 36.133320000000005 210.91999999999993 35.97332000000001 210.91999999999993 35.92000000000001 L 210.91999999999993 27.88000000000001 z M 219.04 39.76 L 219.040078124 40 L 210.92007812399999 40 L 210.92007812399999 39 C 210.33339812399998 39.29332 209.70667812399998 39.53332 209.040078124 39.72 C 208.373478124 39.906679999999994 207.70667812399998 40 207.040078124 40 C 205.52007812399998 40 204.24007812399998 39.7 203.200078124 39.1 C 202.160078124 38.5 201.320078124 37.7733 200.68007812399998 36.92 C 200.04007812399996 36.066700000000004 199.58677812399998 35.18 199.32007812399996 34.260000000000005 C 199.05337812399995 33.34000000000001 198.92007812399996 32.54670000000001 198.92007812399996 31.880000000000006 C 198.92007812399996 30.760000000000005 199.13339812399997 29.706700000000005 199.56007812399994 28.720000000000006 C 199.98675812399992 27.733300000000007 200.56677812399994 26.873300000000008 201.30007812399995 26.140000000000008 C 202.03337812399997 25.406700000000008 202.89337812399995 24.82670000000001 203.88007812399997 24.40000000000001 C 204.86677812399998 23.97330000000001 205.92007812399996 23.76000000000001 207.04007812399996 23.76000000000001 C 208.42677812399995 23.76000000000001 209.72007812399997 24.09332000000001 210.92007812399996 24.76000000000001 L 210.92007812399996 23.76000000000001 L 215.16007812399997 23.76000000000001 L 215.16007812399997 39.760000000000005 L 219.04007812399996 39.760000000000005 z M 256.24 39.76 L 256.239960938 39.99996 L 244.23996093800002 39.99996 L 244.23996093800002 39.75996 L 248.11996093800002 39.75996 L 248.11996093800002 23.99996 C 247.42664093800002 23.99996 246.726660938 24.119960000000003 246.01996093800003 24.35996 C 245.31326093800004 24.59996 244.61996093800002 24.90664 243.939960938 25.279960000000003 C 243.259960938 25.653280000000006 242.61326093800002 26.073280000000004 241.99996093800002 26.539960000000004 C 241.386660938 27.006640000000004 240.83996093800002 27.466640000000005 240.35996093800003 27.919960000000003 L 240.35996093800003 39.99996 L 232.23996093800002 39.99996 L 232.23996093800002 39.75996 L 236.11996093800002 39.75996 L 236.11996093800002 23.99996 C 235.42664093800002 23.99996 234.726660938 24.119960000000003 234.01996093800003 24.35996 C 233.31326093800004 24.59996 232.61996093800002 24.90664 231.939960938 25.279960000000003 C 231.259960938 25.653280000000006 230.61326093800002 26.073280000000004 229.99996093800002 26.539960000000004 C 229.386660938 27.006640000000004 228.83996093800002 27.466640000000005 228.35996093800003 27.919960000000003 L 228.35996093800003 39.879960000000004 L 228.35996093800003 39.99996 L 220.23996093800002 39.99996 L 220.23996093800002 39.75996 L 224.11996093800002 39.75996 L 224.11996093800002 23.99996 L 220.23996093800002 23.99996 L 220.23996093800002 23.759960000000003 L 228.35996093800003 23.759960000000003 L 228.35996093800003 27.639960000000002 C 229.45326093800003 26.62666 230.63996093800003 25.75336 231.91996093800003 25.01996 C 233.19996093800003 24.28656 234.59996093800004 23.86666 236.11996093800002 23.75996 C 236.67996093800002 23.73328 237.21326093800002 23.81328 237.719960938 23.999959999999998 C 238.226660938 24.186639999999997 238.666640938 24.45996 239.039960938 24.81996 C 239.413280938 25.179959999999998 239.713280938 25.59996 239.939960938 26.07996 C 240.16664093800003 26.55996 240.29332093800002 27.07996 240.32000093800002 27.63996 C 241.44000093800003 26.626659999999998 242.64000093800001 25.73996 243.92000093800002 24.97996 C 245.20000093800002 24.219959999999997 246.60000093800002 23.81326 248.120000938 23.75996 C 249.400000938 23.70664 250.426700938 24.03996 251.20000093800002 24.75996 C 251.97330093800002 25.47996 252.360000938 26.51996 252.360000938 27.87996 L 252.360000938 39.75996 L 256.24000093800004 39.75996 z" stroke-linecap="round" />
</g>
</svg>